<?xml version="1.0" encoding="UTF-8"?>
<svg width="459px" height="68px" viewBox="0 0 459 68" version="1.1" xmlns="http://www.w3.org/2000/svg" xmlns:xlink="http://www.w3.org/1999/xlink">
    <title>编组 26</title>
    <g id="页面-1" stroke="none" stroke-width="1" fill="none" fill-rule="evenodd" opacity="0.569426037">
        <g id="切图" transform="translate(-411.000000, -5619.000000)" fill="#FF0049">
            <g id="编组-22" transform="translate(411.000000, 5619.000000)">
                <g id="编组" opacity="0.353322347" transform="translate(19.000000, 34.000000) rotate(-270.000000) translate(-19.000000, -34.000000) translate(-15.000000, 15.000000)">
                    <path d="M30.6339401,36.3756629 C31.5860395,37.3339187 32.877996,38.2234932 34.1020963,37.9497334 C35.3260047,38.1551981 36.4820567,37.1969423 37.4339641,36.3756629 L66.8779241,6.60452735 C68.3740253,5.08986487 68.3740253,2.64380087 66.8779241,1.12918668 C65.3732328,-0.37639556 62.9428361,-0.37639556 61.4379529,1.12918668 L34.0340481,29.4632282 L6.56209514,1.12918668 C5.05721192,-0.37639556 2.6268152,-0.37639556 1.12193198,1.12918668 C-0.373977325,2.64380087 -0.373977325,5.08986487 1.12193198,6.60452735 L30.6339401,36.3756629 Z" id="Fill-1"></path>
                </g>
                <g id="编组备份" opacity="0.353322347" transform="translate(440.000000, 34.000000) rotate(-90.000000) translate(-440.000000, -34.000000) translate(406.000000, 15.000000)">
                    <path d="M30.6339401,36.3756629 C31.5860395,37.3339187 32.877996,38.2234932 34.1020963,37.9497334 C35.3260047,38.1551981 36.4820567,37.1969423 37.4339641,36.3756629 L66.8779241,6.60452735 C68.3740253,5.08986487 68.3740253,2.64380087 66.8779241,1.12918668 C65.3732328,-0.37639556 62.9428361,-0.37639556 61.4379529,1.12918668 L34.0340481,29.4632282 L6.56209514,1.12918668 C5.05721192,-0.37639556 2.6268152,-0.37639556 1.12193198,1.12918668 C-0.373977325,2.64380087 -0.373977325,5.08986487 1.12193198,6.60452735 L30.6339401,36.3756629 Z" id="Fill-1"></path>
                </g>
            </g>
        </g>
    </g>
</svg>