<?xml version="1.0" encoding="UTF-8"?>
<svg width="524px" height="115px" viewBox="0 0 524 115" version="1.1" xmlns="http://www.w3.org/2000/svg" xmlns:xlink="http://www.w3.org/1999/xlink">
    <title>编组 9</title>
    <defs>
        <circle id="path-1" cx="145.73757" cy="69.457952" r="7.5"></circle>
        <filter x="-116.7%" y="-103.3%" width="333.3%" height="333.3%" filterUnits="objectBoundingBox" id="filter-2">
            <feMorphology radius="1" operator="dilate" in="SourceAlpha" result="shadowSpreadOuter1"></feMorphology>
            <feOffset dx="0" dy="2" in="shadowSpreadOuter1" result="shadowOffsetOuter1"></feOffset>
            <feGaussianBlur stdDeviation="4.5" in="shadowOffsetOuter1" result="shadowBlurOuter1"></feGaussianBlur>
            <feColorMatrix values="0 0 0 0 1   0 0 0 0 0   0 0 0 0 0.28627451  0 0 0 1 0" type="matrix" in="shadowBlurOuter1"></feColorMatrix>
        </filter>
        <path d="M92.6042155,22 C36.7148664,26.2169959 1,32.6533326 1,39.8648533 C1,52.5674026 111.809524,62.8648533 248.5,62.8648533 C385.190476,62.8648533 496,52.5674026 496,39.8648533 C496,33.1266254 464.819239,27.0651697 415.134769,22.8585555" id="path-3"></path>
        <filter x="-3.6%" y="-39.6%" width="107.3%" height="188.5%" filterUnits="objectBoundingBox" id="filter-4">
            <feMorphology radius="2.5" operator="dilate" in="SourceAlpha" result="shadowSpreadOuter1"></feMorphology>
            <feOffset dx="0" dy="2" in="shadowSpreadOuter1" result="shadowOffsetOuter1"></feOffset>
            <feMorphology radius="2.5" operator="erode" in="SourceAlpha" result="shadowInner"></feMorphology>
            <feOffset dx="0" dy="2" in="shadowInner" result="shadowInner"></feOffset>
            <feComposite in="shadowOffsetOuter1" in2="shadowInner" operator="out" result="shadowOffsetOuter1"></feComposite>
            <feGaussianBlur stdDeviation="4.5" in="shadowOffsetOuter1" result="shadowBlurOuter1"></feGaussianBlur>
            <feColorMatrix values="0 0 0 0 1   0 0 0 0 0   0 0 0 0 0.28627451  0 0 0 1 0" type="matrix" in="shadowBlurOuter1"></feColorMatrix>
        </filter>
    </defs>
    <g id="页面-1" stroke="none" stroke-width="1" fill="none" fill-rule="evenodd">
        <g id="切图" transform="translate(-140.000000, -2775.000000)">
            <g id="编组-9" transform="translate(153.762430, 2775.000000)">
                <g id="编组-23" transform="translate(0.000000, 16.042048)">
                    <g id="椭圆形">
                        <use fill="black" fill-opacity="1" filter="url(#filter-2)" xlink:href="#path-1"></use>
                        <use fill="#FF0049" fill-rule="evenodd" xlink:href="#path-1"></use>
                    </g>
                    <g id="路径" transform="translate(248.500000, 42.432427) rotate(-5.000000) translate(-248.500000, -42.432427) ">
                        <use fill="black" fill-opacity="1" filter="url(#filter-4)" xlink:href="#path-3"></use>
                        <use stroke="#FF0049" stroke-width="3" xlink:href="#path-3"></use>
                    </g>
                </g>
                <g id="编组-25备份" transform="translate(95.237570, 0.000000)" fill-rule="nonzero">
                    <path d="M33.9754601,56 L54,50.8110465 C50.6134969,45.5232558 48.202454,41.7612645 46.7668712,39.5250727 C45.3312883,37.2888808 43.8773006,35.0218023 42.404908,32.7238372 L42.404908,32.7238372 L42.404908,32.4643895 C44.0981595,31.3277616 45.5521472,29.703125 46.7668712,27.5904797 C47.9815951,25.4778343 48.5889571,23.0501453 48.5889571,20.3074128 C48.5889571,17.4905523 47.601227,14.846657 45.6257669,12.3757267 C43.6503067,9.90479651 40.3067485,8.03924419 35.595092,6.77906977 C32.601227,5.93895349 29.3190184,5.43241279 25.7484663,5.25944767 C22.1779141,5.08648256 17.5582822,5 11.8895706,5 C9.85276074,5 7.6993865,5.01853198 5.42944785,5.05559593 C3.1595092,5.09265988 1.34969325,5.11119186 0,5.11119186 C0,9.23764535 0.0122699387,13.3702762 0.036809816,17.5090843 C0.0613496933,21.6478924 0.0736196319,25.1875 0.0736196319,28.127907 C0.0736196319,28.9703765 0.0735083399,29.7870162 0.073285756,30.5778259 L0.070614749,35.0127254 C0.0656066107,40.1689013 0.0543382997,43.8721449 0.036809816,46.1224564 C0.0122699387,49.2728924 0,52.1453488 0,54.7398256 L0,54.7398256 L20.208589,54.7398256 C20.208589,51.7747093 20.196319,48.5748547 20.1717791,45.1402616 C20.1472393,41.7056686 20.1349693,37.5421512 20.1349693,32.6497093 L20.1354238,31.4382671 C20.1378475,28.2718158 20.1499659,25.6178537 20.1717791,23.4763808 C20.196319,21.0672238 20.208589,19.5537791 20.208589,18.9360465 L20.208589,18.9360465 L21.2392638,18.9360465 C22.0736196,18.9360465 22.8159509,19.0039971 23.4662577,19.1398983 C24.1165644,19.2757994 24.809816,19.5290698 25.5460123,19.8997093 C26.3803681,20.3444767 27.0368098,21.0363372 27.5153374,21.9752907 C27.993865,22.9142442 28.2331288,23.8902616 28.2331288,24.903343 C28.2331288,25.8422965 28.1288344,26.6700581 27.9202454,27.3866279 C27.7116564,28.1031977 27.1533742,28.9680233 26.2453988,29.9811047 C25.607362,30.6976744 24.7668712,31.278343 23.7239264,31.7231105 C22.6809816,32.1678779 21.8282209,32.4520349 21.1656442,32.5755814 L21.1656442,32.5755814 L20.8343558,33.7986919 C24.4417178,40.1242733 27.1717791,44.825218 29.0245399,47.9015262 C30.8773006,50.9778343 32.5276074,53.6773256 33.9754601,56 L33.9754601,56 Z M83.0060449,55 C84.689407,55 86.2242372,54.9627907 87.6105354,54.8883721 C88.9968336,54.8139535 90.1603339,54.7395349 91.1010363,54.6651163 L91.1010363,54.6651163 L92.8462867,42.3488372 C91.9798503,42.3736434 90.964882,42.3922481 89.8013817,42.4046512 C88.6378814,42.4170543 87.1525619,42.4232558 85.3454231,42.4232558 C84.1076569,42.4232558 82.7584917,42.3922481 81.2979275,42.3302326 C79.8373633,42.2682171 78.3149108,42.0635659 76.7305699,41.7162791 C74.6511226,41.2697674 73.1162925,40.6124031 72.1260794,39.744186 C71.1358664,38.875969 70.6407599,37.9581395 70.6407599,36.9906977 L70.6407599,36.9906977 L95,36.9906977 C95,33.2449612 94.560593,29.9829457 93.6817789,27.2046512 C92.8029649,24.4263566 91.2619459,22.0077519 89.0587219,19.9488372 C87.2763385,18.3116279 85.1226252,17.0775194 82.597582,16.2465116 C80.0725389,15.4155039 77.2380541,15 74.0941278,15 C71.2967761,15 68.4870466,15.4589147 65.6649396,16.3767442 C62.8428325,17.2945736 60.4663212,18.6217054 58.5354059,20.3581395 C56.0846287,22.5410853 54.3827001,24.7426357 53.42962,26.9627907 C52.47654,29.1829457 52,31.7813953 52,34.7581395 C52,37.6604651 52.662205,40.3581395 53.9866149,42.8511628 C55.3110248,45.344186 57.210996,47.4837209 59.6865285,49.2697674 C62.6571675,51.3782946 66.1043466,52.8604651 70.0280656,53.7162791 C73.9517847,54.572093 78.2777778,55 83.0060449,55 Z M78,30 L69,30 C69.0737705,28.4580499 69.5102459,27.239229 70.3094262,26.3435374 C71.1086066,25.4478458 72.2213115,25 73.647541,25 C75.147541,25 76.2479508,25.4761905 76.9487705,26.4285714 C77.6495902,27.3809524 78,28.5714286 78,30 L78,30 Z M132.491094,54 C133.909245,54 135.383376,53.9877384 136.913486,53.9632153 C138.443596,53.9386921 139.805768,53.9264305 141,53.9264305 L141,53.9264305 L140.998766,52.4708492 C140.995065,50.1506744 140.983036,47.2148873 140.96268,43.6634877 C140.943132,40.2530167 140.931263,35.9568968 140.927074,30.7751279 L140.926853,21.9634332 C140.930834,16.38 140.942776,11.793188 140.96268,8.20299728 C140.97823,5.39816076 140.988921,3.27824847 140.994752,1.84326039 L140.997668,1.06445845 C140.998056,0.948356608 140.998396,0.839104011 140.998688,0.736700656 L141,0 L122.228159,0 L122.302799,15.9277929 C120.138253,16.099455 117.955047,16.3876022 115.753181,16.7922343 C113.551315,17.1968665 111.455188,17.76703 109.464801,18.5027248 C105.185468,20.0722071 102.038168,22.2547684 100.022901,25.0504087 C98.0076336,27.846049 97,30.8623978 97,34.099455 C97,37.8269755 97.9329941,41.0579019 99.7989822,43.7922343 C101.66497,46.5265668 104.426633,48.7765668 108.083969,50.5422343 C110.472434,51.719346 113.607294,52.5899183 117.48855,53.153951 C121.369805,53.7179837 126.370653,54 132.491094,54 Z M124,42 L123.64878,42 C122.81626,42 121.970732,41.8976852 121.112195,41.6930556 C120.253659,41.4884259 119.460163,41.1574074 118.731707,40.7 C117.613008,40.0018519 116.878049,39.1953704 116.526829,38.2805556 C116.17561,37.3657407 116,36.3425926 116,35.2111111 C116,34.0314815 116.286179,32.9662037 116.858537,32.0152778 C117.430894,31.0643519 118.198374,30.3601852 119.160976,29.9027778 C120.149593,29.3972222 121.021138,29.1203704 121.77561,29.0722222 C122.530081,29.0240741 123.271545,29 124,29 L124,29 L124,42 L124,42 Z M150.407086,54.9994131 C151.966881,54.9966745 153.911133,54.9843505 156.239841,54.9624413 C159.227618,54.9374022 162.453915,54.6995305 165.918731,54.2488263 C169.383548,53.7981221 172.220681,53.0344288 174.430129,51.9577465 C176.589362,50.9311424 178.390816,49.6103286 179.83449,47.9953052 C181.278163,46.3802817 182,44.4084507 182,42.0798122 C182,40.1768388 181.573175,38.5367762 180.719524,37.1596244 C179.865874,35.7824726 178.597952,34.6056338 176.915758,33.629108 C176.112322,33.1533646 175.264949,32.7089202 174.373637,32.2957746 C173.482326,31.8826291 172.647506,31.5007825 171.869177,31.1502347 C170.814668,30.6744914 170.030063,30.3051643 169.515362,30.0422535 C169.000661,29.7793427 168.74331,29.4600939 168.74331,29.084507 C168.74331,28.6838811 168.98183,28.4021909 169.45887,28.2394366 C169.93591,28.0766823 170.563594,27.9577465 171.341923,27.8826291 C172.120251,27.8075117 172.923687,27.7511737 173.75223,27.713615 C174.580773,27.6760563 175.484638,27.657277 176.463826,27.657277 L176.463826,27.657277 L181.510406,27.657277 L179.740337,15 L179.740337,15 L175.622206,15.0020866 C174.270941,15.0090419 172.70609,15.0333855 170.927651,15.0751174 C168.115626,15.1502347 165.052527,15.4256651 161.738355,15.9014085 C158.424182,16.3771518 155.674926,17.1158059 153.490585,18.1173709 C150.603238,19.3943662 148.569541,20.8403756 147.389495,22.4553991 C146.209448,24.0704225 145.619425,25.8794992 145.619425,27.8826291 C145.619425,29.5101721 146.008589,31.0688576 146.786918,32.5586854 C147.565246,34.0485133 148.870829,35.3317684 150.703667,36.4084507 C151.63264,36.9593114 152.523951,37.4350548 153.377602,37.8356808 C154.231252,38.2363067 154.971919,38.5743349 155.599604,38.8497653 C156.804757,39.3755869 157.639577,39.7699531 158.104063,40.0328638 C158.56855,40.2957746 158.800793,40.5774648 158.800793,40.8779343 C158.800793,41.1283255 158.681533,41.3787167 158.443013,41.629108 C158.204493,41.8794992 157.319458,42.0798122 155.787909,42.2300469 C154.808722,42.3302034 154.005286,42.3802817 153.377602,42.3802817 L153.377602,42.3802817 L144,42.3802817 L145.770069,55 L145.770069,55 L150.407086,54.9994131 Z M204.771841,71 L204.697201,54.0826058 C207.185185,54.0579807 209.847328,53.7316991 212.68363,53.1037609 C215.519932,52.4758227 217.983036,51.5954779 220.072943,50.4627267 C223.108284,48.7882248 225.521628,46.6766286 227.312977,44.1279382 C229.104326,41.5792478 230,38.421088 230,34.6534587 C230,31.2552048 228.942607,28.1401388 226.82782,25.3082606 C224.713034,22.4763824 221.553294,20.3093799 217.348601,18.8072532 C213.591744,17.4775017 209.996607,16.6771883 206.563189,16.406313 C203.129771,16.1354377 199.211196,16 194.807464,16 C193.83715,16 192.406559,16.0123125 190.515691,16.0369375 C188.624823,16.0615626 187.119593,16.0738751 186,16.0738751 C186,20.3093799 186.01244,24.7849787 186.03732,29.5006716 C186.0622,34.2163645 186.07464,38.2979628 186.07464,41.7454668 L186.074419,43.4610954 C186.074271,44.0252125 186.074051,44.5815706 186.073756,45.1301696 L186.071106,48.3286547 C186.065806,52.9867192 186.054544,57.016299 186.03732,60.4173942 C186.015994,64.628274 186.003808,67.8214868 186.000762,69.9970327 L186,71 L204.771841,71 Z M204,42 L204,29 L204,29 L204.429268,29 C205.235772,29 206.042276,29.0601852 206.84878,29.1805556 C207.655285,29.3009259 208.461789,29.6018519 209.268293,30.0833333 C210.178862,30.637037 210.861789,31.3652778 211.317073,32.2680556 C211.772358,33.1708333 212,34.1277778 212,35.1388889 C212,36.7759259 211.726829,37.9916667 211.180488,38.7861111 C210.634146,39.5805556 209.853659,40.2907407 208.839024,40.9166667 C208.292683,41.2537037 207.544715,41.5185185 206.595122,41.7111111 C205.645528,41.9037037 204.780488,42 204,42 L204,42 Z M255.037277,55 C258.019449,55 260.877364,54.6024465 263.611021,53.8073394 C266.344679,53.0122324 268.730416,51.7706422 270.768233,50.0825688 C273.253377,48.0275229 275.079957,45.7217125 276.247974,43.1651376 C277.415991,40.6085627 278,37.8868502 278,35 C278,31.9663609 277.415991,29.2140673 276.247974,26.7431193 C275.079957,24.2721713 273.352782,22.0825688 271.066451,20.1743119 C268.879525,18.3639144 266.437871,17.0489297 263.741491,16.2293578 C261.045111,15.4097859 258.106429,15 254.925446,15 C251.645057,15 248.631821,15.4525994 245.885737,16.3577982 C243.139654,17.2629969 240.722853,18.6207951 238.635332,20.4311927 C236.398703,22.412844 234.733657,24.5840979 233.640194,26.9449541 C232.546731,29.3058104 232,31.9908257 232,35 C232,37.9602446 232.633712,40.7492355 233.901135,43.3669725 C235.168558,45.9847095 236.970286,48.2477064 239.306321,50.1559633 C241.319287,51.7706422 243.698811,52.9816514 246.444895,53.7889908 C249.190978,54.5963303 252.055105,55 255.037277,55 Z M255.53719,42 C254.991736,42 254.464876,41.9064171 253.956612,41.7192513 C253.448347,41.5320856 253.008264,41.2139037 252.636364,40.7647059 C251.991736,40.0160428 251.557851,39.1488414 251.334711,38.1631016 C251.11157,37.1773619 251,36.1105169 251,34.9625668 C251,34.0392157 251.117769,33.0285205 251.353306,31.9304813 C251.588843,30.8324421 251.991736,29.9590018 252.561983,29.3101604 C253.033058,28.7860963 253.479339,28.4367201 253.900826,28.2620321 C254.322314,28.087344 254.842975,28 255.46281,28 C256.033058,28 256.559917,28.0935829 257.043388,28.2807487 C257.52686,28.4679144 257.929752,28.7361854 258.252066,29.0855615 C258.921488,29.8092692 259.380165,30.7326203 259.628099,31.855615 C259.876033,32.9786096 260,34.0516934 260,35.0748663 C260,36.1229947 259.857438,37.1898396 259.572314,38.2754011 C259.28719,39.3609626 258.884298,40.2032086 258.363636,40.802139 C258.066116,41.1515152 257.644628,41.4385027 257.099174,41.6631016 C256.553719,41.8877005 256.033058,42 255.53719,42 Z M305.898594,55 C308.30087,55 309.997323,54.9876999 310.987952,54.9630996 C311.978581,54.9384994 312.783467,54.901599 313.40261,54.8523985 L313.40261,54.8523985 L315,42.3062731 L315,42.3062731 L313.328313,42.3062731 C308.64759,42.3062731 305.700469,41.7097171 304.486948,40.5166052 C303.273427,39.3234932 302.666667,37.7306273 302.666667,35.7380074 C302.666667,35.4674047 302.660475,34.9692497 302.648092,34.2435424 C302.63571,33.5178352 302.629518,32.896679 302.629518,32.3800738 L302.630261,31.9461255 C302.632242,31.399016 302.638186,30.9778598 302.648092,30.6826568 C302.660475,30.3136531 302.666667,29.8339483 302.666667,29.2435424 L302.666667,29.2435424 L314.665663,29.2435424 L314.665663,16.3284133 L302.666667,16.3284133 L302.666667,5 L284.35241,5 L284.35241,16.3284133 L278,16.3284133 L278,29.2435424 L284.129518,29.2435424 C284.129518,30.5227552 284.117135,31.9311193 284.092369,33.4686347 C284.073107,34.66448 284.061336,36.3253762 284.057055,38.4513234 L284.055221,40.3874539 C284.055221,45.1107011 285.894076,48.7269373 289.571787,51.2361624 C293.249498,53.7453875 298.691767,55 305.898594,55 Z" id="Redspot" fill="#FFFFFF"></path>
                    <path d="M11.8895706,5 C17.5582822,5 22.1779141,5.08648256 25.7484663,5.25944767 C29.3190184,5.43241279 32.601227,5.93895349 35.595092,6.77906977 C40.3067485,8.03924419 43.6503067,9.90479651 45.6257669,12.3757267 C47.601227,14.846657 48.5889571,17.4905523 48.5889571,20.3074128 C48.5889571,23.0501453 47.9815951,25.4778343 46.7668712,27.5904797 C45.5521472,29.703125 44.0981595,31.3277616 42.404908,32.4643895 L42.404908,32.4643895 L42.404908,32.7238372 L43.5057515,34.4415198 C44.1963428,35.5188162 44.8828341,36.5892323 45.5652255,37.652768 C38.2949542,38.5208072 31.294032,39.4194847 24.5882485,40.3440705 C23.4661681,38.4009998 22.2144667,36.2187439 20.8343558,33.7986919 L20.8343558,33.7986919 L21.1656442,32.5755814 L21.3935469,32.5284507 C22.0200712,32.386906 22.7968643,32.1184593 23.7239264,31.7231105 C24.7668712,31.278343 25.607362,30.6976744 26.2453988,29.9811047 C27.1533742,28.9680233 27.7116564,28.1031977 27.9202454,27.3866279 C28.1288344,26.6700581 28.2331288,25.8422965 28.2331288,24.903343 C28.2331288,23.8902616 27.993865,22.9142442 27.5153374,21.9752907 C27.0368098,21.0363372 26.3803681,20.3444767 25.5460123,19.8997093 C24.809816,19.5290698 24.1165644,19.2757994 23.4662577,19.1398983 C22.8159509,19.0039971 22.0736196,18.9360465 21.2392638,18.9360465 L21.2392638,18.9360465 L20.208589,18.9360465 L20.2082551,19.1369146 C20.2061405,19.8501786 20.1939819,21.2966674 20.1717791,23.4763808 C20.1499659,25.6178537 20.1378475,28.2718158 20.1354238,31.4382671 L20.1354238,31.4382671 L20.1349693,32.6497093 C20.1349693,32.9215116 20.1350072,33.1910642 20.1350829,33.458367 L20.1359918,35.0351865 C20.1378664,37.1661923 20.1423185,39.1440732 20.1493482,40.9688295 C13.0849854,41.9719291 6.37251212,43.0059559 0.0449757567,44.062533 C0.0597915796,41.8410635 0.0669131294,38.8237627 0.070614749,35.0127254 L0.070614749,35.0127254 L0.073285756,30.5778259 L0.073285756,30.5778259 L0.0730444785,26.9971668 C0.0703604294,24.2932356 0.0582822086,21.1305414 0.036809816,17.5090843 C0.0122699387,13.3702762 2.84217094e-13,9.23764535 2.84217094e-13,5.11119186 C1.34969325,5.11119186 3.1595092,5.09265988 5.42944785,5.05559593 C7.6993865,5.01853198 9.85276074,5 11.8895706,5 Z M74.0941278,15 C77.2380541,15 80.0725389,15.4155039 82.597582,16.2465116 C85.1226252,17.0775194 87.2763385,18.3116279 89.0587219,19.9488372 C91.2619459,22.0077519 92.8029649,24.4263566 93.6817789,27.2046512 C94.1998559,28.8425068 94.565225,30.6484709 94.7778861,32.6225435 C79.8324476,33.9179304 65.5554671,35.3492321 52.1197416,36.8863114 C52.0410232,36.1902178 52,35.4805177 52,34.7581395 C52,31.7813953 52.47654,29.1829457 53.42962,26.9627907 C54.3827001,24.7426357 56.0846287,22.5410853 58.5354059,20.3581395 C60.4663212,18.6217054 62.8428325,17.2945736 65.6649396,16.3767442 C68.4870466,15.4589147 71.2967761,15 74.0941278,15 Z M141,1.42108547e-13 L140.998688,0.736700656 C140.998396,0.839104011 140.998056,0.948356608 140.997668,1.06445845 L140.997668,1.06445845 L140.994752,1.84326039 C140.988921,3.27824847 140.97823,5.39816076 140.96268,8.20299728 C140.942776,11.793188 140.930834,16.38 140.926853,21.9634332 L140.926853,21.9634332 L140.925619,29.1970252 C135.219347,29.5520314 129.574928,29.9276344 124.000204,30.3225348 L124,29 L123.267209,29.0080247 C122.77579,29.0187243 122.278591,29.0401235 121.77561,29.0722222 C121.021138,29.1203704 120.149593,29.3972222 119.160976,29.9027778 C118.683842,30.1295014 118.254648,30.4168512 117.873393,30.7648272 C110.821449,31.2885538 103.888603,31.8413763 97.0904086,32.4221753 C97.3829607,29.8148682 98.3598203,27.3574848 100.022901,25.0504087 C102.038168,22.2547684 105.185468,20.0722071 109.464801,18.5027248 C111.455188,17.76703 113.551315,17.1968665 115.753181,16.7922343 C117.955047,16.3876022 120.138253,16.099455 122.302799,15.9277929 L122.302799,15.9277929 L122.228159,1.42108547e-13 L141,1.42108547e-13 Z M73.647541,25 C72.2213115,25 71.1086066,25.4478458 70.3094262,26.3435374 C69.5102459,27.239229 69.0737705,28.4580499 69,30 L69,30 L78,30 C78,28.5714286 77.6495902,27.3809524 76.9487705,26.4285714 C76.2479508,25.4761905 75.147541,25 73.647541,25 Z M179.740337,15 L181.432279,27.0810554 C174.644182,27.3679677 167.771658,27.6929756 160.828058,28.0568743 C155.734252,28.3238294 150.680676,28.6076011 145.672537,28.9073263 C145.636891,28.5691297 145.619425,28.2274246 145.619425,27.8826291 C145.619425,25.8794992 146.209448,24.0704225 147.389495,22.4553991 C148.569541,20.8403756 150.603238,19.3943662 153.490585,18.1173709 C155.674926,17.1158059 158.424182,16.3771518 161.738355,15.9014085 C165.052527,15.4256651 168.115626,15.1502347 170.927651,15.0751174 C172.70609,15.0333855 174.270941,15.0090419 175.622206,15.0020866 L175.622206,15.0020866 L179.740337,15 Z M194.807464,16 C199.211196,16 203.129771,16.1354377 206.563189,16.406313 C209.996607,16.6771883 213.591744,17.4775017 217.348601,18.8072532 C221.553294,20.3093799 224.713034,22.4763824 226.82782,25.3082606 C226.922563,25.4351298 227.015184,25.5625673 227.105683,25.6905733 C213.878273,25.9297273 200.143464,26.3280062 186.02606,26.8921755 C186.008237,23.1260233 186,19.5204581 186,16.0738751 L186,16.0738751 L186.544118,16.0730008 C187.591868,16.0697952 188.915726,16.0577741 190.515691,16.0369375 C192.136435,16.0158304 193.419016,16.0037691 194.363435,16.0007538 Z M302.666667,5 L302.666667,16.3284133 L314.665663,16.3284133 L314.669394,26.7380017 C303.420731,26.1673898 291.139915,25.7760246 278.003003,25.574395 L278,16.3284133 L284.35241,16.3284133 L284.35241,5 L302.666667,5 Z M254.925446,15 C258.106429,15 261.045111,15.4097859 263.741491,16.2293578 C266.437871,17.0489297 268.879525,18.3639144 271.066451,20.1743119 C272.974604,21.7669273 274.49328,23.5555121 275.622479,25.5400663 C262.627074,25.364577 248.814823,25.3725391 234.354254,25.5738998 C235.410357,23.7377962 236.838369,22.023301 238.635332,20.4311927 C240.722853,18.6207951 243.139654,17.2629969 245.885737,16.3577982 C248.631821,15.4525994 251.645057,15 254.925446,15 Z" id="形状结合" fill="#FF0049"></path>
                </g>
            </g>
        </g>
    </g>
</svg>